<svg width="422" height="451" viewBox="0 0 422 451" fill="none" xmlns="http://www.w3.org/2000/svg">
<g filter="url(#filter0_d_245_16)">
<rect x="36" y="35.6343" width="350" height="379.182" rx="15" fill="#FFFFF7"/>
</g>
<path d="M217.577 35.6201H224.154V39.9218C224.154 42.2945 221.794 44.2236 218.892 44.2236H218.234C217.975 44.2231 217.718 44.2644 217.479 44.3453C217.239 44.4262 217.021 44.545 216.838 44.6949C216.654 44.8448 216.509 45.0229 216.41 45.2188C216.311 45.4148 216.261 45.6248 216.261 45.8368V49.0631C216.261 49.2751 216.311 49.4851 216.41 49.681C216.509 49.877 216.654 50.055 216.838 50.2049C217.021 50.3548 217.239 50.4736 217.479 50.5545C217.718 50.6354 217.975 50.6768 218.234 50.6763H218.892C226.16 50.6763 232.046 45.8637 232.046 39.9219V23.7903C232.046 22.0091 230.279 20.564 228.1 20.564H217.577C215.398 20.564 213.63 22.0091 213.63 23.7903V32.3938C213.63 34.175 215.398 35.6201 217.577 35.6201ZM193.899 35.6201H200.476V39.9218C200.476 42.2945 198.117 44.2236 195.215 44.2236H194.557C194.298 44.2231 194.041 44.2644 193.801 44.3453C193.562 44.4262 193.344 44.545 193.16 44.6949C192.977 44.8448 192.832 45.0229 192.733 45.2188C192.634 45.4148 192.583 45.6248 192.584 45.8368V49.0631C192.583 49.2751 192.634 49.4851 192.733 49.681C192.832 49.877 192.977 50.055 193.16 50.2049C193.344 50.3548 193.562 50.4736 193.801 50.5545C194.041 50.6354 194.298 50.6768 194.557 50.6763H195.215C202.482 50.6763 208.369 45.8637 208.369 39.9219V23.7903C208.369 22.0091 206.601 20.564 204.423 20.564H193.899C191.721 20.564 189.953 22.0091 189.953 23.7903V32.3938C189.953 34.175 191.721 35.6201 193.899 35.6201Z" fill="#58A3F2"/>
<path d="M36 280.682C80.837 206.621 228.691 307.66 386 280.682V415H36V280.682Z" fill="#58A3F2"/>
<defs>
<filter id="filter0_d_245_16" x="0.799999" y="0.434277" width="420.4" height="449.582" filterUnits="userSpaceOnUse" color-interpolation-filters="sRGB">
<feFlood flood-opacity="0" result="BackgroundImageFix"/>
<feColorMatrix in="SourceAlpha" type="matrix" values="0 0 0 0 0 0 0 0 0 0 0 0 0 0 0 0 0 0 127 0" result="hardAlpha"/>
<feMorphology radius="3" operator="erode" in="SourceAlpha" result="effect1_dropShadow_245_16"/>
<feOffset/>
<feGaussianBlur stdDeviation="19.1"/>
<feComposite in2="hardAlpha" operator="out"/>
<feColorMatrix type="matrix" values="0 0 0 0 0.786667 0 0 0 0 0.786667 0 0 0 0 0.786667 0 0 0 1 0"/>
<feBlend mode="normal" in2="BackgroundImageFix" result="effect1_dropShadow_245_16"/>
<feBlend mode="normal" in="SourceGraphic" in2="effect1_dropShadow_245_16" result="shape"/>
</filter>
</defs>
</svg>
