<svg width="432" height="464" viewBox="0 0 432 464" fill="none" xmlns="http://www.w3.org/2000/svg">
<g filter="url(#filter0_d_323_4)">
<rect x="41" y="41.5879" width="350" height="381.213" rx="15" fill="#FFFFF7"/>
</g>
<path d="M41 311.069C85.837 249.351 233.691 333.55 391 311.069V423H41V311.069Z" fill="#1EC199"/>
<path d="M222.577 43.7144H229.154V48.0392C229.154 50.4247 226.795 52.364 223.893 52.364H223.235C222.976 52.3635 222.719 52.4051 222.479 52.4865C222.239 52.5678 222.022 52.6872 221.838 52.8379C221.655 52.9886 221.51 53.1676 221.411 53.3646C221.312 53.5616 221.261 53.7727 221.262 53.9859V57.2295C221.261 57.4426 221.312 57.6537 221.411 57.8507C221.51 58.0477 221.655 58.2267 221.838 58.3774C222.022 58.5281 222.239 58.6476 222.479 58.7289C222.719 58.8102 222.976 58.8518 223.235 58.8513H223.893C231.16 58.8513 237.047 54.0129 237.047 48.0393V31.8212C237.047 30.0305 235.279 28.5776 233.1 28.5776H222.577C220.399 28.5776 218.631 30.0305 218.631 31.8212V40.4708C218.631 42.2616 220.399 43.7144 222.577 43.7144ZM198.9 43.7144H205.477V48.0392C205.477 50.4247 203.117 52.364 200.215 52.364H199.557C199.298 52.3635 199.041 52.4051 198.802 52.4865C198.562 52.5678 198.344 52.6872 198.161 52.8379C197.978 52.9886 197.832 53.1676 197.733 53.3646C197.634 53.5616 197.584 53.7727 197.584 53.9859V57.2295C197.584 57.4426 197.634 57.6537 197.733 57.8507C197.832 58.0477 197.978 58.2267 198.161 58.3774C198.344 58.5281 198.562 58.6476 198.802 58.7289C199.041 58.8102 199.298 58.8518 199.557 58.8513H200.215C207.483 58.8513 213.369 54.0129 213.369 48.0393V31.8212C213.369 30.0305 211.602 28.5776 209.423 28.5776H198.9C196.721 28.5776 194.953 30.0305 194.953 31.8212V40.4708C194.953 42.2616 196.721 43.7144 198.9 43.7144Z" fill="#1EC199"/>
<defs>
<filter id="filter0_d_323_4" x="0.400002" y="0.987892" width="431.2" height="462.413" filterUnits="userSpaceOnUse" color-interpolation-filters="sRGB">
<feFlood flood-opacity="0" result="BackgroundImageFix"/>
<feColorMatrix in="SourceAlpha" type="matrix" values="0 0 0 0 0 0 0 0 0 0 0 0 0 0 0 0 0 0 127 0" result="hardAlpha"/>
<feMorphology radius="3" operator="erode" in="SourceAlpha" result="effect1_dropShadow_323_4"/>
<feOffset/>
<feGaussianBlur stdDeviation="21.8"/>
<feComposite in2="hardAlpha" operator="out"/>
<feColorMatrix type="matrix" values="0 0 0 0 0.786667 0 0 0 0 0.786667 0 0 0 0 0.786667 0 0 0 1 0"/>
<feBlend mode="normal" in2="BackgroundImageFix" result="effect1_dropShadow_323_4"/>
<feBlend mode="normal" in="SourceGraphic" in2="effect1_dropShadow_323_4" result="shape"/>
</filter>
</defs>
</svg>
