<svg width="421" height="451" viewBox="0 0 421 451" fill="none" xmlns="http://www.w3.org/2000/svg">
<g filter="url(#filter0_d_245_15)">
<rect x="35.9971" y="35.6343" width="349.003" height="379.182" rx="15" fill="#FFFFF7"/>
</g>
<path d="M217.056 35.6201H223.615V39.9218C223.615 42.2945 221.262 44.2236 218.368 44.2236H217.712C217.454 44.2231 217.198 44.2644 216.959 44.3453C216.72 44.4262 216.503 44.545 216.32 44.6949C216.137 44.8448 215.992 45.0229 215.893 45.2188C215.795 45.4148 215.744 45.6248 215.745 45.8368V49.0631C215.744 49.2751 215.795 49.4851 215.893 49.681C215.992 49.877 216.137 50.055 216.32 50.2049C216.503 50.3548 216.72 50.4736 216.959 50.5545C217.198 50.6354 217.454 50.6768 217.712 50.6763H218.368C225.615 50.6763 231.485 45.8637 231.485 39.9219V23.7903C231.485 22.0091 229.722 20.564 227.55 20.564H217.056C214.884 20.564 213.121 22.0091 213.121 23.7903V32.3938C213.121 34.175 214.884 35.6201 217.056 35.6201ZM193.447 35.6201H200.005V39.9218C200.005 42.2945 197.652 44.2236 194.758 44.2236H194.102C193.844 44.2231 193.588 44.2644 193.349 44.3453C193.11 44.4262 192.893 44.545 192.71 44.6949C192.527 44.8448 192.382 45.0229 192.283 45.2188C192.185 45.4148 192.134 45.6248 192.135 45.8368V49.0631C192.134 49.2751 192.185 49.4851 192.283 49.681C192.382 49.877 192.527 50.055 192.71 50.2049C192.893 50.3548 193.11 50.4736 193.349 50.5545C193.588 50.6354 193.844 50.6768 194.102 50.6763H194.758C202.005 50.6763 207.875 45.8637 207.875 39.9219V23.7903C207.875 22.0091 206.112 20.564 203.94 20.564H193.447C191.274 20.564 189.512 22.0091 189.512 23.7903V32.3938C189.512 34.175 191.274 35.6201 193.447 35.6201Z" fill="#8A5FBB"/>
<path d="M36 280.682C80.837 206.621 228.691 307.66 386 280.682V415H36V280.682Z" fill="#8A5FBB"/>
<defs>
<filter id="filter0_d_245_15" x="0.797131" y="0.434277" width="419.403" height="449.582" filterUnits="userSpaceOnUse" color-interpolation-filters="sRGB">
<feFlood flood-opacity="0" result="BackgroundImageFix"/>
<feColorMatrix in="SourceAlpha" type="matrix" values="0 0 0 0 0 0 0 0 0 0 0 0 0 0 0 0 0 0 127 0" result="hardAlpha"/>
<feMorphology radius="3" operator="erode" in="SourceAlpha" result="effect1_dropShadow_245_15"/>
<feOffset/>
<feGaussianBlur stdDeviation="19.1"/>
<feComposite in2="hardAlpha" operator="out"/>
<feColorMatrix type="matrix" values="0 0 0 0 0.786667 0 0 0 0 0.786667 0 0 0 0 0.786667 0 0 0 1 0"/>
<feBlend mode="normal" in2="BackgroundImageFix" result="effect1_dropShadow_245_15"/>
<feBlend mode="normal" in="SourceGraphic" in2="effect1_dropShadow_245_15" result="shape"/>
</filter>
</defs>
</svg>
